<?xml version="1.0" standalone="no"?>
<!DOCTYPE svg PUBLIC "-//W3C//DTD SVG 20010904//EN"
 "http://www.w3.org/TR/2001/REC-SVG-20010904/DTD/svg10.dtd">
<svg version="1.0" xmlns="http://www.w3.org/2000/svg"
 width="1232.000000pt" height="692.000000pt" viewBox="0 0 1232.000000 692.000000"
 preserveAspectRatio="xMidYMid meet">
<metadata>
Created by potrace 1.16, written by Peter Selinger 2001-2019
</metadata>
<g transform="translate(0.000000,692.000000) scale(0.100000,-0.100000)"
fill="#000000" stroke="none">
<path d="M4178 4165 c-2 -2 -28 -5 -56 -6 -62 -3 -70 -19 -9 -19 l42 0 0 -154
0 -155 -35 3 -34 2 -1 69 0 70 -65 0 -65 0 -3 -54 c-2 -30 2 -59 7 -64 18 -18
13 -22 -29 -23 -37 -1 -40 1 -40 25 0 20 -2 23 -10 11 -5 -8 -10 -23 -10 -32
0 -16 10 -18 79 -18 l80 0 -6 70 -6 70 33 0 33 0 -7 -70 -7 -69 195 -1 196 0
6 25 c3 13 12 29 20 36 22 18 17 39 -10 39 -16 0 -27 -7 -31 -19 -3 -11 -15
-31 -26 -45 -19 -24 -26 -26 -102 -26 l-82 0 0 133 c0 72 -3 142 -7 155 -7 21
-5 22 67 24 41 0 79 1 85 2 5 1 21 -19 34 -44 38 -72 73 -53 41 23 l-16 38
-118 -2 c-65 -1 -123 1 -128 4 -6 4 -12 4 -15 2z"/>
<path d="M5015 4161 c-54 -14 -95 -41 -121 -81 -23 -35 -26 -47 -22 -104 2
-36 0 -62 -4 -60 -4 3 -5 -2 -2 -10 3 -8 -6 -31 -21 -50 -22 -29 -32 -35 -51
-30 -14 4 -54 7 -89 7 -61 1 -78 8 -55 22 13 8 13 262 0 270 -20 12 -1 21 37
17 l38 -4 -3 -130 -4 -130 59 7 c32 4 63 12 68 17 6 6 -7 7 -37 3 l-48 -7 0
95 c0 53 5 108 12 122 10 22 9 28 -3 36 -15 10 -112 10 -128 0 -7 -4 -7 -28
-2 -66 9 -65 7 -194 -4 -236 l-6 -26 113 -6 113 -7 26 30 26 30 48 -26 c54
-31 141 -37 185 -14 35 18 90 71 90 88 0 7 5 10 10 7 6 -4 8 -26 4 -56 l-7
-49 47 0 c29 0 45 4 41 10 -3 6 -22 10 -41 10 -23 0 -33 4 -28 11 11 19 15
257 4 264 -5 3 -10 12 -10 18 0 9 23 11 83 9 66 -3 86 -8 105 -25 36 -33 25
-79 -26 -106 l-22 -12 25 -37 c27 -40 32 -57 13 -46 -7 4 -2 -5 12 -20 14 -16
35 -32 48 -37 12 -5 22 -14 22 -20 0 -6 -7 -8 -16 -5 -9 3 -29 6 -45 6 -16 0
-29 4 -29 10 0 5 -21 40 -47 77 l-48 68 -3 -50 c-4 -66 15 -125 41 -125 20 0
20 0 1 75 l-5 20 16 -20 c10 -11 22 -33 27 -48 l10 -28 157 3 c183 4 216 14
256 83 50 85 20 186 -68 230 -36 18 -143 30 -189 21 l-33 -6 3 -146 4 -146
-25 14 c-20 10 -77 94 -77 112 0 2 9 13 20 26 26 31 27 93 1 119 -25 25 -68
33 -156 29 -64 -3 -70 -5 -67 -23 2 -11 5 -42 8 -70 4 -46 3 -48 -7 -20 -32
83 -137 138 -224 116z m98 -25 c18 -7 45 -28 62 -45 26 -29 30 -39 30 -96 0
-49 -5 -70 -21 -91 -33 -45 -70 -67 -122 -72 -137 -13 -230 132 -156 242 44
65 136 93 207 62z m626 -11 c43 -22 78 -69 86 -115 5 -32 2 -50 -17 -87 -32
-65 -74 -85 -181 -87 l-82 -1 0 152 0 153 83 0 c53 0 93 -5 111 -15z"/>
<path d="M4989 4085 c-37 -20 -57 -91 -36 -131 22 -42 58 -73 95 -80 26 -5 36
-1 62 24 25 25 30 39 30 76 0 58 -17 94 -51 112 -35 18 -66 17 -100 -1z m95
-16 c43 -20 60 -104 30 -147 -27 -39 -96 -24 -115 26 -16 42 -2 111 24 122 30
12 32 12 61 -1z"/>
<path d="M5620 4096 c-3 -3 -5 -51 -4 -108 l1 -103 39 2 c79 5 89 8 88 26 -1
9 2 15 6 12 5 -3 6 21 3 52 -4 45 -11 64 -32 85 -24 24 -89 46 -101 34z"/>
<path d="M6137 4159 c-81 -19 -141 -90 -141 -169 0 -85 91 -179 173 -180 78
-1 173 73 187 146 23 121 -96 231 -219 203z m125 -29 c49 -23 72 -67 72 -142
1 -66 0 -68 -41 -110 -38 -38 -47 -42 -100 -45 -73 -5 -117 16 -157 76 -37 56
-38 103 -2 160 47 73 143 99 228 61z"/>
<path d="M6124 4088 c-51 -24 -60 -117 -17 -170 15 -18 27 -34 27 -35 1 0 17
-4 37 -8 32 -6 41 -3 70 23 29 26 34 36 33 74 -2 94 -77 152 -150 116z m109
-40 c19 -23 23 -98 7 -129 -8 -14 -21 -19 -51 -19 -33 0 -47 6 -70 31 -32 35
-36 66 -14 109 23 44 93 49 128 8z"/>
<path d="M6912 4160 l-142 -5 -20 -33 c-23 -38 -26 -62 -7 -62 8 0 14 6 14 13
0 7 8 25 17 40 18 27 20 27 126 27 60 0 115 3 124 6 24 9 19 -17 -10 -51 -22
-27 -26 -28 -35 -12 -5 9 -21 17 -34 17 -25 0 -25 0 -25 -109 0 -108 7 -171
19 -171 3 0 4 56 3 123 l-4 124 29 -4 c20 -3 34 2 47 16 11 12 23 21 27 21 9
0 3 -226 -6 -240 -3 -5 -2 -16 1 -25 5 -13 18 -15 68 -13 l61 3 0 65 0 65 39
3 39 3 -7 -70 -7 -71 65 0 66 0 0 152 c0 112 3 149 11 141 8 -8 10 -57 7 -152
l-3 -141 107 0 107 0 26 37 c26 39 32 63 15 63 -5 0 -10 -6 -10 -13 0 -8 -7
-27 -15 -44 -15 -29 -16 -29 -98 -30 l-84 -1 1 136 c1 76 -3 145 -8 155 -8 16
-1 17 77 16 l85 -1 18 -39 c20 -40 34 -50 34 -24 0 8 -3 15 -8 15 -4 0 -16 16
-26 35 l-19 35 -104 0 c-73 0 -103 -3 -103 -12 0 -9 -3 -9 -12 0 -7 7 -38 12
-71 12 l-59 0 6 -60 6 -60 -41 0 -42 0 5 50 c6 63 -8 76 -17 16 -12 -77 -8
-81 65 -81 l65 0 0 58 c0 52 1 57 21 57 12 0 28 2 36 5 10 4 13 -26 13 -155 0
-156 -1 -161 -20 -156 -11 3 -27 6 -35 6 -12 0 -15 14 -15 67 l0 68 -65 0 -65
0 3 -70 3 -70 -38 0 -38 0 0 154 c0 115 -3 155 -13 159 -6 2 -10 8 -6 13 3 5
4 8 2 7 -2 -1 -67 -5 -146 -8z"/>
<path d="M6375 3990 l0 -170 51 0 c39 0 53 4 58 17 4 9 2 21 -4 27 -5 5 -10
29 -10 52 0 40 2 42 35 48 38 7 39 9 49 49 6 26 5 27 -30 27 -21 0 -35 3 -32
6 3 3 24 5 47 6 23 0 44 5 48 12 3 6 3 8 -2 4 -4 -4 -20 -1 -36 7 -15 8 -42
15 -59 15 -28 0 -30 -3 -30 -36 0 -37 0 -37 38 -32 33 5 37 3 38 -18 2 -21 -2
-24 -37 -24 -24 0 -40 -5 -40 -12 -4 -33 4 -104 12 -114 13 -16 0 -24 -41 -24
l-36 0 -3 147 c-1 81 -4 150 -7 154 -2 4 34 9 82 11 l86 3 13 -32 c17 -40 29
-44 14 -6 -19 50 -26 53 -118 53 l-86 0 0 -170z"/>
<path d="M7776 4144 c-4 -9 -2 -22 4 -28 13 -13 13 -253 0 -261 -5 -3 -7 -12
-3 -20 4 -11 22 -15 68 -15 35 0 66 4 69 8 3 4 -14 7 -37 7 l-42 -2 0 154 0
153 63 0 c86 0 122 -19 122 -65 0 -35 -21 -65 -46 -65 -20 0 -18 -17 6 -48 57
-74 90 -123 90 -132 0 -22 26 -8 38 20 10 21 13 67 10 160 l-3 130 28 0 c15 0
27 4 27 9 0 5 -26 8 -57 7 -58 -2 -75 -14 -54 -40 8 -9 10 -49 6 -122 -3 -59
-7 -109 -8 -111 -4 -3 -67 85 -67 93 0 3 5 2 10 -1 6 -3 10 -1 10 5 0 7 -7 10
-15 6 -23 -9 -18 2 16 32 28 25 31 32 25 65 -10 52 -47 70 -162 75 -80 4 -92
2 -98 -14z"/>
<path d="M8186 4118 c-4 -24 -6 -97 -5 -163 l1 -120 -30 3 c-16 2 -33 -1 -37
-7 -4 -7 9 -11 37 -11 l44 0 -4 135 c-4 139 0 177 19 158 6 -6 10 -66 10 -152
l0 -141 52 0 c67 0 85 11 70 42 -6 13 -14 30 -16 38 -3 8 -6 3 -6 -12 -1 -16
4 -28 9 -28 6 0 10 -4 10 -9 0 -11 -69 -20 -76 -10 -2 4 0 10 6 14 6 4 10 52
9 121 -1 97 -4 118 -21 139 -11 14 -18 25 -16 26 2 0 19 2 38 3 31 3 41 -3 83
-48 27 -28 46 -45 42 -38 -3 6 -1 12 5 12 7 0 9 -7 6 -15 -6 -17 33 -85 49
-85 11 0 12 97 1 147 -7 28 -6 28 39 27 25 -1 42 2 39 7 -6 11 -117 10 -134
-1 -9 -6 -9 -13 0 -30 10 -18 9 -24 -1 -31 -10 -6 -25 4 -50 31 -36 39 -39 40
-102 40 l-64 0 -7 -42z"/>
<path d="M8610 4141 c-19 -10 -45 -32 -57 -50 l-22 -32 -4 33 c-2 18 -4 -31
-5 -109 0 -79 -3 -147 -7 -153 -3 -5 -1 -10 4 -10 6 0 11 11 11 24 0 50 10 58
36 26 35 -41 81 -53 172 -46 88 8 106 8 224 0 100 -6 138 7 158 55 25 62 -6
127 -77 157 -18 8 -33 17 -33 20 0 3 4 2 10 -1 5 -3 28 -8 50 -11 37 -4 40 -3
40 20 0 14 -4 28 -10 31 -5 3 -10 17 -10 31 0 19 -5 24 -24 24 -13 0 -33 3
-43 6 -16 5 -16 4 2 -10 11 -9 24 -14 31 -12 6 2 18 -13 27 -33 23 -51 21 -59
-6 -33 -32 31 -81 44 -102 28 -27 -20 -14 -47 31 -65 48 -19 108 -67 100 -80
-4 -5 -2 -21 4 -35 8 -22 5 -30 -21 -56 -32 -31 -46 -34 -121 -24 -41 6 -45 9
-56 46 -7 21 -10 43 -7 49 4 5 0 9 -9 9 -8 0 -17 6 -19 13 -3 6 -6 -10 -6 -38
l-1 -50 -53 -17 c-97 -32 -158 -19 -215 46 -43 50 -45 121 -5 184 37 56 129
92 159 62 6 -6 25 -7 45 -3 l34 7 -40 7 c-74 14 -148 10 -185 -10z"/>
<path d="M8904 4138 c-41 -32 -45 -39 -39 -75 6 -31 4 -33 -23 -33 -16 0 -44
-3 -61 -6 -31 -6 -31 -7 -28 -63 2 -55 1 -56 -26 -59 -38 -5 -83 43 -79 84 2
22 0 26 -7 14 -14 -19 -14 -57 -1 -65 6 -3 10 -14 10 -24 0 -29 99 -43 141
-20 17 9 19 17 13 56 -7 51 2 63 50 63 22 0 27 -4 24 -18 -4 -12 1 -18 14 -19
17 -2 18 0 6 15 -8 11 -5 10 11 -3 13 -11 24 -19 25 -18 4 6 46 -11 46 -18 0
-5 7 -9 15 -9 18 0 20 -37 3 -43 -21 -6 -48 4 -41 17 3 6 3 8 -2 4 -4 -4 -15
-2 -23 5 -13 10 -14 9 -4 -9 27 -50 123 -54 130 -5 5 30 -14 50 -68 73 -56 23
-70 42 -70 88 0 36 23 70 48 70 6 0 14 5 17 10 12 19 -53 10 -81 -12z"/>
<path d="M3634 4098 c-17 -4 -37 -14 -43 -22 -9 -11 -4 -13 30 -11 l41 2 -4
-123 -4 -124 84 0 c83 0 84 0 77 23 -3 12 -9 69 -12 127 -3 58 -10 111 -15
118 -6 6 -21 12 -35 12 l-25 0 5 -125 c3 -68 8 -129 12 -135 5 -8 -7 -10 -37
-8 -33 2 -42 7 -38 18 6 20 6 240 0 249 -3 4 -19 4 -36 -1z"/>
<path d="M1325 3480 c-4 -6 -1 -17 5 -25 11 -13 5 -15 -39 -15 l-51 0 0 -120
0 -120 70 0 70 0 0 -172 c0 -94 3 -169 6 -165 3 3 6 126 6 272 l0 266 -26 34
c-14 18 -23 36 -19 38 5 3 94 4 198 2 200 -3 270 -16 352 -66 48 -30 100 -93
112 -136 13 -47 13 -51 1 -111 -20 -90 -122 -168 -256 -193 -32 -7 -63 -15
-67 -19 -11 -10 339 -449 436 -548 76 -78 220 -150 331 -167 84 -12 33 -22
-107 -20 -126 1 -135 2 -197 32 -82 39 -131 86 -255 243 -55 69 -129 161 -166
205 -36 44 -80 101 -98 127 -39 58 -101 127 -101 113 -1 -9 -1 -600 0 -637 0
-9 11 -30 25 -46 14 -17 25 -33 25 -36 0 -3 -58 -5 -129 -3 -71 1 -127 -1
-124 -5 2 -5 85 -8 184 -8 157 0 180 2 186 16 4 10 -1 20 -11 26 -38 21 -43
63 -37 300 l6 228 165 -206 c188 -235 247 -294 327 -332 55 -26 66 -27 238
-30 99 -1 186 2 194 7 27 17 3 38 -58 50 -129 25 -229 75 -301 151 -29 30
-171 206 -214 263 -15 21 -41 51 -56 67 -33 34 -140 184 -140 197 0 5 26 14
58 20 73 14 171 71 214 125 30 38 33 50 36 119 3 57 0 84 -13 110 -29 57 -100
115 -178 145 -71 28 -76 28 -333 32 -187 3 -264 0 -269 -8z"/>
<path d="M10867 3483 c-13 -12 -7 -32 18 -57 l25 -25 0 -561 0 -561 -26 -26
c-48 -48 -32 -53 158 -53 95 0 179 4 187 9 12 8 10 15 -11 39 -22 26 -26 43
-32 131 -4 55 -4 164 0 242 6 122 9 139 20 123 8 -10 28 -41 46 -67 31 -45
114 -157 138 -184 6 -7 8 -13 3 -13 -4 0 0 -6 9 -12 8 -7 37 -42 64 -78 26
-36 54 -71 61 -78 7 -7 10 -29 7 -54 -2 -27 1 -45 9 -50 16 -10 358 -10 375 0
19 12 5 39 -34 63 -19 11 -47 37 -64 57 l-31 37 43 5 43 5 3 118 3 117 -126 0
c-109 0 -125 -2 -125 -16 0 -11 -14 -1 -39 27 -22 25 -35 47 -29 50 6 4 7 12
3 19 -6 9 -9 9 -15 0 -6 -9 -11 -6 -20 10 -7 13 -29 41 -49 64 -60 66 -125
166 -115 175 5 5 32 14 60 19 143 30 266 165 251 277 -17 124 -118 207 -292
240 -80 16 -395 22 -381 8 4 -5 83 -8 174 -9 202 0 280 -16 368 -74 72 -48
105 -95 112 -158 9 -96 -40 -182 -128 -226 -41 -20 -46 -20 -29 1 13 15 12 15
-9 4 -12 -7 -20 -16 -17 -21 4 -6 -2 -9 -12 -8 -24 3 -143 -34 -143 -45 0 -4
9 -18 21 -30 12 -12 45 -53 74 -92 30 -38 77 -99 105 -135 28 -36 77 -99 108
-140 160 -211 237 -300 258 -300 6 0 17 -6 23 -14 10 -12 -4 -15 -91 -18 -57
-2 -115 -2 -129 0 -25 4 -26 6 -16 33 13 33 24 16 -220 335 -84 110 -178 234
-210 276 -32 42 -61 77 -64 77 -3 1 -6 -147 -5 -328 1 -325 1 -330 24 -360 12
-16 22 -31 22 -33 0 -2 -54 -3 -120 -3 -66 0 -120 2 -120 4 0 3 11 16 24 30
l24 26 6 538 c7 561 5 605 -34 630 -11 6 -20 20 -20 29 0 15 -9 18 -53 18 -30
0 -57 -3 -60 -7z"/>
<path d="M4400 3473 c-127 -19 -225 -69 -316 -158 -39 -38 -83 -92 -98 -120
-28 -50 -73 -202 -62 -212 3 -3 8 8 11 23 44 202 159 346 330 416 103 43 237
49 377 18 75 -17 97 -19 120 -9 16 6 30 10 32 8 2 -2 13 -33 25 -68 12 -35 31
-82 42 -105 10 -22 17 -48 13 -58 -6 -21 25 -25 44 -6 14 14 16 48 4 48 -11 0
-29 39 -53 114 -27 82 -30 85 -107 84 -37 0 -94 7 -127 16 -54 15 -171 19
-235 9z"/>
<path d="M5407 3468 c-20 -4 -54 -16 -75 -27 -49 -26 -122 -89 -122 -107 0 -8
-4 -14 -8 -14 -16 0 -32 -67 -32 -132 0 -149 64 -229 267 -334 123 -64 153
-83 153 -100 0 -9 4 -13 9 -9 12 7 53 -44 45 -57 -4 -6 0 -14 7 -19 21 -13 17
-106 -6 -154 -11 -22 -36 -50 -55 -63 -32 -21 -44 -23 -125 -20 -79 3 -95 7
-130 31 -59 42 -91 72 -111 106 -10 17 -26 31 -36 31 -47 0 56 -119 140 -161
55 -28 156 -37 220 -20 152 41 180 239 51 356 -22 20 -87 59 -144 87 -197 97
-264 173 -267 306 -3 103 15 152 74 209 18 18 56 42 83 54 44 20 65 23 164 21
64 -1 120 3 126 8 9 8 21 -10 45 -67 18 -43 33 -86 33 -95 1 -19 22 -24 31 -9
3 5 -5 33 -19 63 -14 29 -25 61 -25 71 0 9 -4 17 -10 17 -5 0 -10 8 -10 18 0
15 -13 17 -118 18 -64 0 -134 -3 -155 -8z"/>
<path d="M8020 3471 c-129 -31 -217 -78 -296 -159 -68 -70 -118 -152 -144
-240 -12 -37 -25 -81 -30 -98 -33 -102 17 -310 100 -419 36 -47 133 -135 177
-160 97 -54 264 -92 355 -81 149 18 196 33 284 93 112 77 208 196 230 288 1 6
12 37 23 69 22 62 29 210 11 251 -5 12 -6 -22 -3 -80 5 -90 3 -108 -22 -180
-35 -103 -58 -147 -112 -216 -66 -84 -212 -183 -263 -177 -14 1 -30 -1 -37 -5
-6 -4 -33 -9 -60 -11 -26 -2 -56 -7 -65 -11 -10 -4 -26 -4 -35 0 -10 4 -43 8
-73 9 -95 3 -235 78 -328 175 -50 53 -120 184 -132 248 -36 198 24 385 170
533 63 64 88 82 154 109 171 71 340 68 505 -11 94 -44 194 -143 237 -233 19
-38 34 -75 34 -82 0 -6 4 -14 10 -18 5 -3 2 16 -7 42 -8 26 -15 58 -15 71 0
12 -5 22 -12 22 -6 0 -19 13 -29 29 -26 45 -138 144 -198 175 -30 16 -83 37
-119 48 -72 21 -254 32 -310 19z"/>
<path d="M10168 3463 c-316 -3 -328 -4 -328 -22 0 -11 9 -23 20 -26 11 -4 20
-16 21 -28 3 -62 -3 -82 -87 -292 -19 -49 -40 -103 -46 -120 -6 -16 -19 -48
-29 -71 -11 -23 -19 -46 -19 -51 0 -6 -20 -55 -45 -108 l-46 -98 -18 39 c-11
21 -31 69 -45 106 -30 78 -36 51 63 278 23 52 41 99 41 103 0 8 34 85 72 162
11 22 34 52 51 68 17 15 27 27 21 27 -25 0 -77 -74 -122 -175 -27 -60 -53
-121 -57 -135 -4 -14 -23 -58 -42 -99 -65 -140 -67 -153 -42 -224 12 -34 32
-84 44 -112 13 -27 30 -70 40 -95 35 -91 43 -94 66 -18 9 29 32 87 51 128 19
41 43 98 53 125 10 28 26 68 35 90 29 68 77 188 90 225 7 19 24 59 37 89 55
121 58 157 13 188 -11 8 -20 18 -20 23 0 4 47 8 105 8 115 0 125 -6 79 -49
-27 -25 -61 -92 -119 -234 -18 -44 -44 -106 -59 -137 -14 -31 -26 -63 -26 -70
0 -8 -4 -18 -9 -23 -4 -6 -21 -44 -37 -85 -15 -41 -31 -80 -35 -85 -11 -15
-79 -186 -79 -198 0 -17 29 26 30 43 0 8 11 37 24 65 57 122 76 166 76 176 0
5 9 29 20 51 11 23 20 47 20 54 0 6 16 44 35 83 19 39 35 75 35 81 0 6 4 18
10 28 9 16 33 70 75 170 10 23 30 54 43 68 23 23 27 23 41 9 14 -14 16 -75 19
-495 l3 -480 -26 -26 c-48 -48 -42 -50 187 -57 116 -4 252 -6 302 -6 l91 2
-65 9 c-36 5 -149 10 -252 11 -104 1 -188 3 -188 5 0 2 11 13 25 24 l25 19 0
494 0 494 -25 19 c-14 11 -25 25 -25 30 0 7 74 11 223 11 l222 1 50 -67 c28
-36 57 -68 65 -70 9 -3 11 -1 4 4 -6 4 -30 35 -54 68 -24 33 -51 65 -59 72
-11 8 -48 12 -106 10 -49 -1 -237 -3 -417 -4z"/>
<path d="M2330 3443 c0 -10 11 -28 25 -41 33 -32 34 -57 32 -555 l-2 -429 -28
-24 c-16 -14 -27 -31 -24 -38 7 -18 165 -29 267 -18 73 7 75 8 77 35 1 20 -2
27 -11 24 -34 -13 -37 26 -36 493 0 474 4 513 41 525 12 4 19 14 17 23 -3 15
-24 17 -181 20 -164 2 -177 1 -177 -15z m260 -3 c0 -5 -11 -20 -24 -33 -23
-23 -24 -28 -31 -268 -4 -134 -5 -351 -3 -481 l3 -237 28 -28 c15 -16 27 -32
27 -36 0 -4 -56 -7 -125 -7 -117 0 -145 7 -112 27 7 4 21 19 30 33 15 22 17
69 17 492 l0 467 -30 34 c-16 19 -27 36 -25 39 9 9 245 7 245 -2z"/>
<path d="M2747 3453 c-13 -12 -7 -31 11 -38 14 -5 15 -4 5 6 -24 24 -13 28 79
28 l91 0 36 -37 c20 -21 85 -98 146 -172 291 -358 408 -499 452 -548 l48 -54
0 365 c0 363 0 365 -22 396 -13 16 -23 34 -23 38 0 4 41 9 90 11 74 2 90 0 90
-12 0 -9 -8 -20 -19 -25 -10 -6 -21 -25 -24 -43 -4 -18 -7 -224 -8 -458 -2
-534 -1 -588 10 -571 7 10 13 11 31 1 12 -6 24 -9 27 -7 2 3 5 240 6 526 l2
521 28 26 c46 43 33 49 -112 52 -115 2 -132 1 -138 -14 -4 -10 0 -22 10 -29
33 -24 37 -64 37 -367 l0 -302 -34 40 c-18 21 -77 93 -131 159 -54 66 -104
124 -112 128 -7 4 -13 12 -13 18 0 5 -5 15 -10 22 -6 7 -30 37 -53 67 -23 31
-53 67 -66 80 -13 14 -42 50 -64 80 -22 30 -54 70 -71 88 l-30 32 -131 0 c-73
0 -135 -3 -138 -7z"/>
<path d="M6855 3451 c-19 -6 37 -9 155 -10 230 -2 297 -16 392 -80 56 -38 98
-114 98 -177 0 -122 -113 -232 -261 -253 -36 -5 -106 -7 -157 -4 l-92 5 0
-240 c0 -248 6 -294 41 -313 41 -22 16 -29 -101 -29 -66 0 -120 3 -120 6 0 3
11 19 25 36 l25 30 0 477 0 478 -26 26 c-14 14 -23 31 -19 37 3 5 -1 10 -9 10
-26 0 -30 -22 -6 -40 15 -11 20 -22 15 -30 -5 -9 -4 -11 3 -6 9 5 12 -113 12
-474 l0 -481 -26 -25 c-14 -14 -24 -33 -22 -42 3 -15 22 -17 141 -19 133 -3
137 -2 137 18 0 11 -9 28 -20 37 -12 10 -24 38 -29 67 -11 62 -15 391 -5 429
7 28 7 28 70 21 82 -9 206 11 267 41 61 31 139 109 155 155 24 70 11 165 -29
218 -32 40 -111 91 -175 110 -46 15 -104 21 -235 25 -96 3 -187 1 -204 -3z"/>
<path d="M8641 3451 c-11 -7 -7 -17 21 -50 20 -23 43 -63 53 -89 9 -26 26 -67
38 -92 11 -25 20 -48 19 -51 -1 -4 12 -34 28 -68 17 -34 30 -67 30 -74 0 -6 7
-21 16 -32 8 -11 19 -37 25 -57 5 -21 26 -73 46 -116 20 -42 37 -82 39 -88 1
-6 12 -33 24 -60 13 -27 24 -53 25 -59 2 -5 16 -39 33 -75 17 -36 41 -94 54
-130 l24 -65 48 -3 48 -3 -16 28 c-9 15 -41 87 -72 158 -31 72 -72 166 -91
210 -19 44 -59 136 -87 205 -29 69 -70 166 -91 215 -20 50 -46 109 -56 132
-11 24 -19 47 -19 52 0 5 -16 30 -35 55 -19 25 -32 46 -27 47 22 3 238 -4 242
-8 3 -2 -3 -9 -13 -15 -42 -23 -39 -51 17 -190 84 -207 112 -271 129 -303 30
-56 17 -5 -19 72 -40 86 -54 120 -59 143 -5 22 -45 120 -63 154 -21 41 -21
105 1 117 17 10 24 38 10 40 -55 6 -312 6 -322 0z"/>
<path d="M9030 3439 c0 -12 10 -29 23 -39 12 -10 37 -53 56 -96 18 -44 43
-104 56 -134 13 -30 35 -84 50 -120 14 -36 35 -83 45 -105 10 -22 22 -55 25
-72 4 -18 12 -33 18 -33 8 0 7 -3 -1 -9 -8 -4 -13 -12 -13 -17 1 -19 -21 -90
-36 -113 -9 -13 -19 -36 -23 -50 -6 -25 -7 -24 -19 14 -19 62 -95 228 -99 217
-2 -6 14 -48 36 -94 21 -46 52 -121 67 -168 15 -47 34 -91 41 -99 16 -17 34
-6 27 17 -2 10 7 45 20 78 97 228 90 204 72 254 -10 25 -25 63 -35 85 -9 22
-52 123 -95 224 -45 105 -91 198 -108 218 -16 18 -27 36 -24 40 4 3 52 5 109
5 57 -1 112 3 123 8 13 5 -41 9 -147 9 -164 1 -168 1 -168 -20z"/>
<path d="M9486 3445 c-3 -8 4 -24 17 -35 30 -29 27 -79 -12 -170 -18 -41 -39
-92 -48 -112 l-16 -38 -48 121 c-49 120 -59 175 -37 197 9 9 9 12 0 12 -19 0
-35 -40 -29 -74 3 -18 14 -52 25 -77 81 -175 129 -339 113 -381 -5 -13 -3 -32
4 -47 7 -14 21 -43 30 -64 26 -54 28 -40 4 24 -31 81 -33 89 -19 89 8 0 11 10
8 30 -3 19 0 31 9 35 9 3 12 12 8 25 -6 19 22 107 65 205 64 145 73 190 40
220 -36 33 -25 44 38 38 31 -2 82 0 112 5 47 8 32 10 -101 11 -131 1 -158 -1
-163 -14z"/>
<path d="M1530 3210 l0 -200 83 0 c83 1 147 20 205 61 36 26 62 87 62 144 0
60 -34 121 -83 150 -35 21 -152 45 -219 45 l-48 0 0 -200z m261 139 c78 -49
99 -131 56 -219 -25 -51 -82 -87 -154 -97 l-43 -6 0 172 c0 130 3 171 13 171
8 0 7 4 -3 11 -37 26 88 -4 131 -32z"/>
<path d="M2823 3362 l47 -51 0 -432 c0 -376 -2 -435 -16 -465 -9 -19 -20 -34
-25 -34 -5 0 -9 -9 -9 -20 0 -19 7 -20 145 -20 136 0 145 1 145 19 0 10 -7 21
-15 24 -8 4 -21 23 -30 43 -13 31 -15 86 -13 350 l3 314 120 -146 c66 -81 147
-179 180 -218 33 -40 72 -88 88 -106 74 -92 166 -199 206 -240 40 -41 -36 58
-124 161 -83 98 -108 129 -152 184 -26 33 -53 65 -59 70 -14 12 -246 296 -294
358 -19 26 -38 46 -41 47 -9 0 -15 -184 -18 -500 l-2 -245 31 -48 c16 -26 30
-50 30 -52 0 -3 -43 -5 -95 -5 -52 0 -95 4 -95 8 0 5 9 17 20 27 10 9 23 31
29 49 5 17 8 217 7 458 l-1 427 -35 36 c-19 20 -44 41 -55 47 -11 6 1 -12 28
-40z"/>
<path d="M11170 3210 l0 -203 88 6 c115 8 172 29 216 77 38 43 51 88 44 155
-12 99 -98 155 -254 163 l-94 5 0 -203z m138 142 c24 -13 46 -31 49 -40 4 -9
11 -20 17 -24 6 -4 11 -36 11 -70 0 -87 -26 -127 -104 -162 -72 -32 -87 -32
-95 -3 -8 29 -8 198 0 274 l6 59 37 -6 c20 -3 55 -15 79 -28z"/>
<path d="M5395 3376 c-22 -8 -57 -34 -77 -57 -36 -39 -38 -46 -38 -107 0 -109
24 -134 219 -231 144 -72 179 -97 226 -163 32 -44 35 -53 26 -78 -8 -23 -7
-28 4 -24 24 10 38 -35 33 -111 -10 -147 -91 -232 -263 -275 -45 -11 -61 -10
-138 9 -49 12 -98 19 -113 15 -28 -7 -53 16 -54 51 0 12 -4 25 -9 30 -16 18
-60 138 -54 148 3 6 1 7 -5 3 -18 -11 -15 -24 23 -116 56 -135 52 -130 104
-130 25 -1 73 -7 106 -15 33 -8 78 -15 99 -15 47 0 156 29 156 41 0 5 6 9 13
9 22 0 84 52 113 95 27 41 54 127 54 173 -1 42 -33 144 -55 175 -63 89 -85
105 -270 202 -121 64 -136 76 -163 125 -39 74 -22 156 44 207 29 21 50 28 100
31 70 5 104 -5 171 -49 33 -22 40 -24 31 -9 -38 60 -198 97 -283 66z"/>
<path d="M10427 3219 l3 -174 72 -5 c70 -5 158 6 174 23 18 18 24 2 24 -64 0
-64 -2 -70 -17 -64 -52 21 -128 35 -183 33 -34 -1 -63 -5 -65 -9 -3 -3 -5
-129 -5 -280 l-1 -274 73 3 c115 5 191 27 270 77 55 36 73 43 84 34 12 -10 8
-18 -21 -50 -30 -34 -92 -139 -81 -139 2 0 22 29 45 64 23 35 51 72 61 81 24
22 25 38 4 56 -14 11 -22 10 -54 -9 -38 -22 -39 -22 -45 -2 -9 27 -24 25 -73
-11 -51 -37 -163 -78 -214 -79 l-38 0 0 260 0 260 28 0 c24 -1 61 -12 113 -34
10 -4 23 -1 32 9 15 14 19 14 46 0 52 -26 62 -13 59 74 -3 83 -2 82 -72 65
-19 -4 -31 -2 -36 7 -7 10 -14 10 -33 2 -44 -20 -118 -27 -128 -12 -12 19 -12
309 0 309 29 0 135 -42 174 -68 53 -37 77 -40 84 -12 5 19 6 19 37 -2 l31 -22
-25 28 c-13 15 -54 41 -89 58 -52 25 -82 32 -150 36 l-86 4 2 -173z"/>
<path d="M4332 3360 c-80 -27 -152 -81 -189 -142 -57 -95 -68 -139 -68 -283 0
-140 8 -180 56 -283 66 -142 223 -250 373 -257 28 -1 58 -5 67 -9 11 -5 26 1
42 16 l25 23 -102 0 c-90 0 -107 3 -151 27 -52 27 -160 117 -151 125 3 3 -6
17 -20 31 -13 15 -24 35 -24 44 0 10 -4 18 -9 18 -5 0 -12 17 -16 37 -4 21 -9
42 -12 47 -17 26 -24 223 -11 302 21 137 111 248 235 288 78 26 101 28 174 16
112 -17 173 -45 246 -113 37 -34 61 -52 55 -41 -19 35 -103 105 -158 130 -100
47 -264 58 -362 24z"/>
<path d="M6989 3304 c-3 -149 1 -316 7 -325 3 -5 45 -9 94 -9 176 0 270 74
270 213 0 53 -22 99 -64 134 -48 39 -98 54 -213 60 l-93 6 -1 -79z m234 22
c50 -24 62 -35 79 -75 23 -54 20 -124 -10 -174 -36 -62 -195 -115 -264 -88
l-28 11 0 181 0 181 83 -3 c65 -3 94 -10 140 -33z"/>
<path d="M8015 3361 c-102 -36 -148 -70 -202 -149 -57 -82 -76 -147 -81 -277
-3 -86 0 -119 12 -149 9 -21 16 -45 16 -53 0 -23 82 -144 132 -194 151 -150
387 -169 537 -43 18 15 42 27 54 28 25 1 69 67 49 74 -9 3 -6 12 7 31 40 55
62 241 41 336 -21 95 -30 119 -74 190 -92 146 -223 225 -376 225 -37 -1 -87
-9 -115 -19z m249 -41 c112 -56 208 -184 240 -324 28 -118 16 -263 -26 -341
-7 -11 -21 -38 -32 -59 -50 -93 -175 -165 -287 -166 -56 0 -77 5 -135 35 -90
45 -136 84 -182 153 -51 78 -69 117 -87 187 -19 75 -19 122 1 226 19 103 50
164 113 227 107 107 256 130 395 62z"/>
<path d="M778 3073 c53 -4 61 -10 41 -30 -7 -7 -10 -60 -7 -157 l3 -146 -36 0
-36 0 5 74 5 74 -64 4 c-35 2 -68 2 -73 0 -5 -3 -6 -38 -4 -79 l5 -75 -43 4
c-24 2 -44 0 -44 -5 0 -4 35 -7 77 -5 l77 3 2 34 c1 22 -1 29 -7 20 -6 -9 -9
2 -9 32 0 40 3 48 22 52 34 9 38 1 38 -73 l0 -69 194 -1 194 0 21 36 c23 39
26 60 11 69 -11 7 -37 -5 -41 -20 -1 -5 -11 -25 -22 -43 l-19 -33 -87 3 c-71
2 -85 6 -82 18 14 49 14 253 0 288 l-13 32 -81 -2 c-61 -1 -68 -3 -27 -5z"/>
<path d="M6100 3067 c-57 -30 -73 -44 -91 -79 -42 -82 -15 -185 62 -234 45
-28 142 -33 187 -10 56 30 102 94 102 145 0 16 5 33 11 37 8 4 10 -22 8 -92
l-4 -99 55 0 55 0 -3 72 -3 72 38 3 c38 3 38 3 35 43 -4 48 -3 46 -40 47 -23
1 -27 4 -18 13 9 10 18 10 45 -1 69 -29 87 -7 45 55 l-27 42 -91 -3 -91 -3 3
-56 c3 -47 1 -57 -15 -63 -14 -6 -15 -4 -6 5 15 15 -85 104 -128 113 -50 10
-102 7 -129 -7z m123 -8 c57 -16 104 -62 113 -112 22 -125 -32 -194 -157 -198
-78 -3 -118 15 -155 71 -23 34 -26 48 -22 93 6 72 34 111 93 127 25 7 48 17
51 21 7 12 31 11 77 -2z m368 -51 c12 -23 -1 -23 -42 -2 -17 8 -42 14 -57 12
-22 -2 -28 -9 -33 -41 l-6 -38 44 7 c41 6 43 5 43 -19 0 -23 -5 -26 -37 -29
l-38 -3 1 -62 c1 -34 5 -66 9 -72 4 -7 -10 -11 -40 -11 -39 0 -46 3 -41 16 3
9 6 78 6 154 l0 139 73 3 c75 3 88 -3 118 -54z"/>
<path d="M6120 3007 c-34 -17 -50 -53 -50 -114 0 -48 3 -54 36 -79 27 -21 48
-28 82 -28 41 -1 48 2 70 34 42 62 15 157 -53 186 -42 17 -53 17 -85 1z m90
-22 c32 -16 44 -46 44 -107 1 -69 -61 -102 -119 -64 -29 19 -63 78 -47 84 6 2
8 17 5 37 -5 29 -2 35 23 49 37 19 58 20 94 1z"/>
<path d="M258 3014 c-16 -8 -28 -17 -28 -20 0 -3 5 -2 11 2 6 3 15 1 19 -6 6
-9 12 -9 30 0 l22 12 -4 -136 -4 -136 76 0 77 0 -5 138 c-3 111 -7 139 -20
150 -9 7 -23 11 -32 10 -13 -3 -15 -26 -15 -146 l0 -142 -32 0 c-34 0 -50 14
-36 33 4 7 7 67 5 135 -3 134 -6 138 -64 106z"/>
<path d="M966 2990 c-10 -51 -8 -52 34 -48 36 3 40 1 40 -19 0 -20 -5 -23 -40
-23 l-40 0 0 -54 c0 -39 4 -55 15 -60 21 -8 113 24 119 41 5 11 1 11 -16 -2
-38 -26 -58 -20 -58 19 0 33 2 35 38 38 35 3 37 5 40 41 3 35 2 37 -27 37 -23
0 -29 4 -25 15 4 8 11 12 18 9 6 -4 4 1 -5 10 -8 9 -31 19 -51 22 -33 6 -35 4
-42 -26z"/>
<path d="M4960 2955 c0 -9 -12 -27 -27 -40 l-28 -23 0 -189 c0 -179 1 -190 23
-220 12 -17 22 -36 22 -42 0 -17 40 -13 46 4 4 9 -4 23 -17 34 -23 19 -24 24
-27 201 -3 190 4 234 40 246 29 9 23 44 -7 44 -16 0 -25 -6 -25 -15z"/>
<path d="M3921 2794 c-2 -39 46 -171 84 -230 65 -102 172 -184 293 -226 57
-20 87 -23 202 -23 115 0 145 3 205 23 38 13 81 32 95 42 14 9 43 27 65 39
l40 21 -36 0 c-20 0 -47 -8 -60 -19 -75 -58 -255 -107 -358 -97 -236 22 -415
151 -484 349 -14 40 -29 88 -35 107 -7 23 -10 28 -11 14z"/>
<path d="M9410 2678 c-34 -92 -46 -121 -90 -218 -42 -91 -52 -106 -76 -111
-29 -7 -29 -7 -3 -8 40 -2 48 11 117 174 16 39 31 76 34 84 2 8 10 0 17 -20
17 -46 45 -113 75 -182 l25 -58 81 3 81 3 19 35 c22 41 55 115 65 149 5 16 4
21 -4 17 -6 -4 -11 -11 -11 -16 0 -5 -11 -33 -24 -62 -13 -29 -29 -68 -36 -85
-11 -28 -17 -33 -46 -33 -18 0 -36 6 -41 13 -16 24 -83 181 -83 193 0 7 -6 25
-14 41 -8 15 -23 47 -33 70 -22 51 -36 54 -53 11z"/>
</g>
</svg>
